Coordinates
version=1
nRows=24
nColumns=34
inDegrees=no

Units are S.I. units (second, meters, Newtons, ...)
If the header above contains a line with 'inDegrees', this indicates whether rotational values are in degrees (yes) or radians (no).

endheader
time	pelvis_tilt	pelvis_list	pelvis_rotation	pelvis_tx	pelvis_ty	pelvis_tz	hip_flexion_r	hip_adduction_r	hip_rotation_r	knee_angle_r	ankle_angle_r	subtalar_angle_r	mtp_angle_r	hip_flexion_l	hip_adduction_l	hip_rotation_l	knee_angle_l	ankle_angle_l	subtalar_angle_l	mtp_angle_l	lumbar_extension	lumbar_bending	lumbar_rotation	arm_flex_r	arm_add_r	arm_rot_r	elbow_flex_r	pro_sup_r	arm_flex_l	arm_add_l	arm_rot_l	elbow_flex_l	pro_sup_l
0	-0.00208229	-0.155188	0.0794366	-0.0124959	0.936816	-0.264352	0.401082	0.119854	-0.197022	0.208737	-0.103711	0.0861897	0.00413262	-0.261642	-0.327189	-0.215612	0.52727	0.116523	0.112798	-0.0012008	-0.107513	0.107045	-0.0916176	-0.0478891	-0.275816	-0.0205819	0.981766	1.88475	0.236441	-0.373388	-0.00950466	0.61171	1.94679
0.01	-0.0140905	-0.167935	0.0790028	0.000684838	0.937385	-0.262017	0.415097	0.130891	-0.201834	0.235375	-0.0853527	0.076067	0.00407323	-0.207759	-0.344516	-0.185713	0.606473	0.046305	0.0456497	-0.00124903	-0.0977969	0.124962	-0.085898	-0.046899	-0.279065	-0.0204753	0.981487	1.88728	0.22804	-0.365731	-0.00450488	0.62003	1.94979
0.02	-0.0249253	-0.179385	0.0780793	0.0137302	0.938074	-0.259717	0.425462	0.141309	-0.206075	0.257697	-0.0676002	0.0684613	0.00401382	-0.155399	-0.358857	-0.157364	0.681905	-0.0110946	-0.0115019	-0.00129726	-0.089189	0.140913	-0.0791769	-0.044995	-0.282079	-0.0194903	0.980869	1.89023	0.219768	-0.358164	0.00112625	0.627696	1.9526
0.03	-0.0345828	-0.189517	0.0766751	0.0266398	0.938904	-0.257462	0.432186	0.151092	-0.209728	0.275727	-0.0504536	0.0633429	0.00395441	-0.104559	-0.370208	-0.130584	0.753561	-0.0557242	-0.0587055	-0.00134551	-0.0816919	0.154881	-0.0714643	-0.04217	-0.284848	-0.0176265	0.979907	1.89361	0.211625	-0.350695	0.00738224	0.634706	1.95521
0.04	-0.043081	-0.198278	0.07481	0.0394133	0.939892	-0.255257	0.435338	0.160188	-0.21273	0.28956	-0.0339181	0.0606085	0.00389498	-0.0551995	-0.378561	-0.105424	0.821422	-0.0878318	-0.0961533	-0.00139375	-0.0752827	0.166805	-0.0627913	-0.0384105	-0.287334	-0.0148887	0.978579	1.89736	0.203607	-0.343354	0.0142407	0.641058	1.9576
0.05	-0.0504672	-0.205591	0.0725282	0.0520494	0.941049	-0.253108	0.43506	0.168518	-0.214978	0.299374	-0.0180134	0.0600574	0.00383555	-0.00725895	-0.383938	-0.0819825	0.885416	-0.108061	-0.124275	-0.00144201	-0.0699058	0.176606	-0.0532274	-0.0337052	-0.289475	-0.011297	0.976859	1.90142	0.1957	-0.336196	0.0216494	0.646755	1.95973
0.06	-0.0568329	-0.211377	0.0699103	0.0645487	0.942376	-0.251017	0.431554	0.175994	-0.216358	0.305437	-0.00277698	0.0614003	0.00377611	0.0393073	-0.386414	-0.0603986	0.945389	-0.11759	-0.143801	-0.00149024	-0.065483	0.18422	-0.0428867	-0.0280574	-0.29119	-0.00689725	0.97473	1.90565	0.187871	-0.329287	0.0295134	0.651808	1.96156
0.07	-0.0622715	-0.215617	0.0670611	0.076917	0.94387	-0.248986	0.425057	0.182534	-0.216762	0.308073	0.0117414	0.0642947	0.00371667	0.0844918	-0.386132	-0.0408496	1.00108	-0.118133	-0.155783	-0.00153844	-0.0619225	0.189607	-0.0319248	-0.0214967	-0.292394	-0.00176879	0.972202	1.90993	0.180062	-0.322703	0.0376893	0.656241	1.96306
0.08	-0.0668386	-0.218339	0.0640916	0.0891641	0.945523	-0.247017	0.415803	0.188074	-0.216117	0.307629	0.0254893	0.0683936	0.00365722	0.128207	-0.383311	-0.0235326	1.05214	-0.111795	-0.161533	-0.0015866	-0.0591297	0.19279	-0.0205204	-0.0140885	-0.293014	0.00397174	0.969336	1.91407	0.172193	-0.316507	0.0459897	0.660102	1.96422
0.09	-0.0705566	-0.219613	0.0611067	0.101305	0.947323	-0.245112	0.403995	0.192588	-0.214399	0.304443	0.038423	0.0733909	0.00359778	0.17027	-0.378241	-0.008647	1.09816	-0.100806	-0.162527	-0.00163472	-0.0570321	0.193859	-0.0088508	-0.00593617	-0.293004	0.0101718	0.966255	1.91791	0.164168	-0.310748	0.0541984	0.663456	1.96504
0.1	-0.0734195	-0.219549	0.0581903	0.113361	0.94926	-0.243274	0.389792	0.196083	-0.21163	0.298822	0.0505177	0.0790487	0.00353833	0.210425	-0.371266	0.0036239	1.13872	-0.0872346	-0.160262	-0.00168279	-0.055591	0.19297	0.00293214	0.00282153	-0.292355	0.0166492	0.963147	1.92134	0.155889	-0.305455	0.0620923	0.666393	1.96555
0.11	-0.0754046	-0.218275	0.0553948	0.125353	0.951319	-0.241504	0.373317	0.198593	-0.207876	0.291047	0.0617735	0.0852042	0.00347889	0.248372	-0.362762	0.0131291	1.17347	-0.0727489	-0.156117	-0.00173081	-0.0547997	0.190318	0.014719	0.0120186	-0.291096	0.0232033	0.960255	1.92426	0.14727	-0.300638	0.0694642	0.669016	1.96582
0.12	-0.0764953	-0.215932	0.052737	0.1373	0.953479	-0.239803	0.354699	0.200165	-0.20323	0.281387	0.072218	0.0917614	0.00341944	0.283837	-0.35311	0.0197661	1.20215	-0.0584846	-0.151235	-0.00177877	-0.0546646	0.186112	0.0264486	0.0214735	-0.28929	0.0296312	0.957862	1.92662	0.138251	-0.296298	0.0761392	0.67144	1.96591
0.13	-0.0767075	-0.212657	0.050202	0.149218	0.955716	-0.238171	0.334113	0.200846	-0.197814	0.270123	0.0819056	0.0986778	0.00335999	0.316624	-0.342679	0.0234964	1.22463	-0.0450386	-0.14646	-0.00182669	-0.0551776	0.180559	0.0381015	0.0310029	-0.287025	0.0357478	0.956254	1.92843	0.128806	-0.292427	0.0819823	0.673784	1.9659
0.14	-0.0761097	-0.208582	0.0477528	0.161118	0.957999	-0.236606	0.311813	0.200679	-0.191782	0.257568	0.0909135	0.105952	0.00330053	0.346664	-0.331803	0.0243598	1.24093	-0.0325673	-0.142319	-0.00187455	-0.0562887	0.173849	0.0496849	0.0404361	-0.284411	0.041407	0.955695	1.92972	0.118948	-0.289014	0.0868974	0.676156	1.96585
0.15	-0.0748292	-0.203833	0.0453436	0.173006	0.960291	-0.235102	0.288151	0.199707	-0.18532	0.244074	0.0993346	0.113613	0.00324107	0.374036	-0.320781	0.0224845	1.25117	-0.0209465	-0.139055	-0.00192236	-0.0578912	0.166158	0.0612135	0.0496283	-0.281573	0.0465226	0.956392	1.93053	0.108717	-0.286047	0.0908207	0.678652	1.96582
0.16	-0.0730423	-0.19854	0.0429326	0.184878	0.962547	-0.233656	0.263558	0.197977	-0.178651	0.230015	0.107269	0.121712	0.00318161	0.398949	-0.309866	0.0180923	1.25561	-0.00994324	-0.136692	-0.00197012	-0.0598212	0.157659	0.0726927	0.0584719	-0.278645	0.0510811	0.958475	1.9309	0.0981755	-0.283509	0.093713	0.681343	1.96584
0.17	-0.0709548	-0.192851	0.0404936	0.196728	0.964722	-0.232263	0.238506	0.195562	-0.172028	0.215768	0.114811	0.130305	0.00312214	0.421715	-0.299268	0.0114948	1.25454	0.000642522	-0.135102	-0.00201784	-0.0618769	0.14853	0.0841061	0.0669039	-0.27577	0.0551466	0.961984	1.93087	0.087399	-0.281381	0.0955569	0.684275	1.96594
0.18	-0.068776	-0.186929	0.038022	0.208551	0.96677	-0.230923	0.213461	0.192571	-0.165708	0.201679	0.122041	0.139436	0.00306267	0.442684	-0.28916	0.00307836	1.24829	0.0108917	-0.134071	-0.00206551	-0.063849	0.138971	0.0954124	0.0749092	-0.273095	0.0588517	0.966871	1.93045	0.0764645	-0.279638	0.0963573	0.687469	1.96615
0.19	-0.0666924	-0.180959	0.0355364	0.22034	0.96865	-0.229633	0.188827	0.189156	-0.159928	0.188037	0.129011	0.149097	0.00300319	0.462196	-0.279678	-0.00672047	1.23717	0.0207416	-0.133336	-0.00211314	-0.0655532	0.129197	0.106548	0.0825184	-0.270766	0.062377	0.97301	1.92962	0.0654487	-0.278251	0.096147	0.690919	1.96646
0.2	-0.0648437	-0.175134	0.033074	0.23209	0.970326	-0.228398	0.164912	0.185509	-0.154863	0.175046	0.135742	0.159207	0.00294371	0.48053	-0.270931	-0.0174483	1.22147	0.0300141	-0.132607	-0.00216073	-0.0668569	0.119441	0.117437	0.0898009	-0.268921	0.0659215	0.980219	1.92838	0.0544274	-0.277188	0.0949927	0.694604	1.96685
0.21	-0.0633114	-0.169641	0.0306842	0.2438	0.971769	-0.227222	0.141903	0.181853	-0.150597	0.16282	0.142222	0.169581	0.00288421	0.497876	-0.263	-0.0286708	1.2014	0.0384757	-0.131569	-0.00220828	-0.0676931	0.109928	0.127998	0.0968529	-0.267681	0.069669	0.988279	1.92674	0.0434769	-0.276418	0.0929983	0.698483	1.9673
0.22	-0.0621178	-0.164644	0.0284219	0.255466	0.97296	-0.226109	0.119867	0.178422	-0.147107	0.151381	0.148415	0.179921	0.00282469	0.514315	-0.255934	-0.0400059	1.17711	0.0459068	-0.12988	-0.0022558	-0.0680611	0.100864	0.138155	0.103783	-0.267142	0.0737589	0.996959	1.92471	0.0326764	-0.275913	0.0903037	0.702507	1.96778
0.23	-0.0612362	-0.160269	0.026341	0.267092	0.973888	-0.225063	0.0987635	0.175432	-0.144257	0.140673	0.154274	0.189834	0.00276517	0.529828	-0.249747	-0.0511478	1.14868	0.0521599	-0.127176	-0.00230329	-0.0680155	0.0924072	0.147846	0.110697	-0.267367	0.0782648	1.00603	1.92238	0.0221079	-0.275652	0.087077	0.70662	1.96825
